<svg xmlns="http://www.w3.org/2000/svg" viewBox="0 0 24 24" fill="currentColor">
  <path d="M12 2C6.477 2 2 6.484 2 12.017c0 4.425 2.865 8.18 6.839 9.504.499.09.682-.217.682-.483 0-.237-.008-.867-.013-1.702-2.782.605-3.369-1.343-3.369-1.343-.454-1.158-1.11-1.466-1.11-1.466-.909-.623.069-.61.069-.61 1.003.07 1.531 1.032 1.531 1.032.892 1.529 2.341 1.087 2.91.829.091-.645.356-1.087.654-1.334-2.22-.253-4.555-1.113-4.555-4.93 0-1.091.39-1.984 1.029-2.682-.103-.253-.446-1.272.098-2.65 0 0 .84-.268 2.75 1.025A9.435 9.435 0 0112 6.844c.85.004 1.705.115 2.504.337 1.909-1.293 2.747-1.025 2.747-1.025.546 1.379.202 2.398.099 2.65.64.698 1.028 1.591 1.028 2.682 0 3.827-2.338 4.673-4.562 4.922.357.309.676.92.676 1.855 0 1.334-.012 2.41-.012 2.727 0 .268.18.579.688.482C21.137 20.198 24 16.442 24 12.017 24 6.484 19.522 2 14 2h-2z"/>
</svg>